<svg width="24" height="24" viewBox="0 0 39 40" fill="none" xmlns="http://www.w3.org/2000/svg">
<path d="M33.3208 8.32063C32.508 7.50512 31.5428 6.85821 30.4806 6.41684C29.4183 5.97547 28.2797 5.74829 27.1299 5.74829C25.98 5.74829 24.8414 5.97547 23.7792 6.41684C22.7169 6.85821 21.7518 7.50512 20.9389 8.32063L19.2519 10.0123L17.5649 8.32063C15.9229 6.67414 13.696 5.74914 11.3739 5.74914C9.05183 5.74914 6.82487 6.67414 5.18292 8.32063C3.54097 9.96713 2.61853 12.2003 2.61853 14.5287C2.61853 16.8572 3.54097 19.0904 5.18292 20.7369L6.86992 22.4285L19.2519 34.8448L31.6338 22.4285L33.3208 20.7369C34.1341 19.9217 34.7792 18.9539 35.2194 17.8887C35.6595 16.8235 35.8861 15.6818 35.8861 14.5287C35.8861 13.3757 35.6595 12.234 35.2194 11.1688C34.7792 10.1036 34.1341 9.13575 33.3208 8.32063V8.32063Z" stroke="#E60F0F" stroke-width="3.19078" stroke-linecap="round" stroke-linejoin="round"/>
</svg>
