<svg width="39" height="40" viewBox="0 0 39 40" fill="none" xmlns="http://www.w3.org/2000/svg">
<path d="M34.1218 19.3163C34.1273 21.4227 33.6365 23.5006 32.6895 25.3808C31.5665 27.6338 29.8403 29.5289 27.704 30.8536C25.5677 32.1784 23.1058 32.8806 20.594 32.8816C18.4934 32.8871 16.4212 32.395 14.5462 31.4453L5.47461 34.4775L8.49848 25.3808C7.55142 23.5006 7.06064 21.4227 7.06612 19.3163C7.06709 16.7976 7.76736 14.3288 9.08849 12.1866C10.4096 10.0444 12.2994 8.31337 14.5462 7.18735C16.4212 6.23767 18.4934 5.74553 20.594 5.75102H21.3897C24.707 5.93454 27.8402 7.33858 30.1894 9.69431C32.5387 12.05 33.9388 15.1919 34.1218 18.5184V19.3163Z" stroke="white" stroke-width="3.19078" stroke-linecap="round" stroke-linejoin="round"/>
</svg>
